<svg width="100" height="100" xmlns="http://www.w3.org/2000/svg" xml:space="preserve">
 <g>
  <title>Layer 1</title>
  <path d="m2.11333,14.70549c0,-7.10524 5.75951,-12.86519 12.86553,-12.86519l70.04228,0c7.10603,0 12.86554,5.75994 12.86554,12.86519l0,70.04263c0,7.10602 -5.75951,12.86554 -12.86554,12.86554l-70.04228,0c-7.10602,0 -12.86553,-5.75952 -12.86553,-12.86554l0,-70.04263z" stroke-miterlimit="8" fill="#FFFFFF" id="svg_4" stroke="#0051A3" stroke-width="5"/>
  <path d="m17.29291,25.95149c0,-4.93283 3.99911,-8.9316 8.93194,-8.9316l47.55031,0c4.93282,0 8.93192,3.99878 8.93192,8.9316l0,47.55066c0,4.93282 -3.99908,8.93192 -8.93192,8.93192l-47.55031,0c-4.93283,0 -8.93194,-3.99908 -8.93194,-8.93192l0,-47.55066z" stroke-miterlimit="8" fill="#FFFFFF" id="svg_5" stroke="#0051A3" stroke-width="5"/>
  <path d="m31.81726,36.19792c0,-2.57016 2.08365,-4.65369 4.65326,-4.65369l27.05898,0c2.56961,0 4.65324,2.08353 4.65324,4.65369l0,27.05855c0,2.56961 -2.08363,4.65325 -4.65324,4.65325l-27.05898,0c-2.56961,0 -4.65326,-2.08364 -4.65326,-4.65325l0,-27.05855z" stroke-width="NaN" stroke-miterlimit="8" fill="#0051A3" id="svg_6" stroke="#0051A3"/>
  <path d="m37.82357,46.22118c0,-1.86971 1.5398,-3.38538 3.43998,-3.38538c1.90018,0 3.43998,1.51567 3.43998,3.38538c0,1.86969 -1.53979,3.38537 -3.43998,3.38537c-1.90018,0 -3.43998,-1.51567 -3.43998,-3.38537z" stroke-miterlimit="8" fill="#FFFFFF" id="svg_7" stroke="#FFFFFF"/>
  <path d="m55.29648,46.22118c0,-1.86971 1.53979,-3.38538 3.43998,-3.38538c1.90018,0 3.43998,1.51567 3.43998,3.38538c0,1.86969 -1.53981,3.38537 -3.43998,3.38537c-1.90018,0 -3.43998,-1.51567 -3.43998,-3.38537z" stroke-miterlimit="8" fill="#FFFFFF" id="svg_8" stroke="#FFFFFF"/>
  <path d="m23.95446,71.63937l5.718,3.56339c6.54798,3.24887 13.32855,4.95464 20.27294,4.95464c6.94439,0 13.72497,-1.70576 20.27293,-4.95464l5.71801,-3.56339" stroke-linecap="round" stroke-linejoin="round" fill="none" id="svg_10" stroke="#0051A3" stroke-width="5"/>
  <path d="m14.34435,83.65196l5.66122,3.53174c9.45831,5.01471 19.51396,7.71648 29.93982,7.71648c10.42587,0 20.48153,-2.70177 29.93981,-7.71648l5.66125,-3.53174" stroke-linecap="round" stroke-linejoin="round" fill="none" id="svg_11" stroke="#0051A3" stroke-width="5"/>
  <path d="m36.62232,59.18991l2.93107,2.23871c3.35698,2.04107 6.8319,3.11237 10.39201,3.11237c3.56011,0 7.03503,-1.0713 10.39202,-3.11237l2.93108,-2.23871" stroke-linecap="round" stroke-linejoin="round" fill="none" id="svg_12" stroke="#FFFFFF" stroke-width="5"/>
 </g>

</svg>